<?xml version="1.0" encoding="iso-8859-1"?>
<!-- Generator: Adobe Illustrator 19.0.0, SVG Export Plug-In . SVG Version: 6.00 Build 0)  -->
<svg version="1.1" id="Layer_1" xmlns="http://www.w3.org/2000/svg" xmlns:xlink="http://www.w3.org/1999/xlink" x="0px" y="0px"
	 viewBox="0 0 503.467 503.467" style="enable-background:new 0 0 503.467 503.467;" xml:space="preserve">
<g transform="translate(1 1)">
	<g>
		<polygon style="fill:#ECF4F7;" points="412.867,481.133 88.6,481.133 3.267,481.133 3.267,498.2 498.2,498.2 498.2,481.133 		"/>
		<path style="fill:#ECF4F7;" d="M447,242.2c9.387,0,17.067,7.68,17.067,17.067c0,9.387-7.68,17.067-17.067,17.067h-34.133v204.8
			H88.6v-204.8H54.467c-9.387,0-17.067-7.68-17.067-17.067c0-9.387,7.68-17.067,17.067-17.067h68.267v68.267V447h256V310.467V242.2
			H447L447,242.2z"/>
	</g>
	<g>
		<path style="fill:#C49AE9;" d="M344.6,88.6v187.733H156.867V88.6C176.493,88.6,191,74.093,191,54.467c0,0,25.6-8.533,59.733-8.533
			s59.733,8.533,59.733,8.533C310.467,74.947,324.973,88.6,344.6,88.6"/>
		<polygon style="fill:#C49AE9;" points="122.733,447 378.733,447 378.733,310.467 122.733,310.467 		"/>
	</g>
	<path style="fill:#ECF4F7;" d="M344.6,276.333V88.6c-19.627,0-34.133-13.653-34.133-34.133c0,0-25.6-8.533-59.733-8.533
		S191,54.467,191,54.467c0,19.627-14.507,34.133-34.133,34.133v187.733H344.6z M429.933,45.933c0,9.387-7.68,17.067-17.067,17.067
		l-34.133-8.533V242.2v68.267h-256V242.2V54.467L88.6,63c-9.387,0-17.067-7.68-17.067-17.067s8.533-19.627,25.6-25.6
		c0,0,51.2-17.067,153.6-17.067c100.693,0,153.6,17.067,153.6,17.067C421.4,25.453,429.933,36.547,429.933,45.933L429.933,45.933z"
		/>
</g>
<path style="fill:#51565F;" d="M499.2,503.467c-2.56,0-4.267-1.707-4.267-4.267v-12.8H8.533v12.8c0,2.56-1.707,4.267-4.267,4.267
	S0,501.76,0,499.2v-17.067c0-2.56,1.707-4.267,4.267-4.267H499.2c2.56,0,4.267,1.707,4.267,4.267V499.2
	C503.467,501.76,501.76,503.467,499.2,503.467z M413.867,452.267c-2.56,0-4.267-1.707-4.267-4.267V277.333
	c0-2.56,1.707-4.267,4.267-4.267s4.267,1.707,4.267,4.267V448C418.133,450.56,416.427,452.267,413.867,452.267z M379.733,452.267
	h-256c-2.56,0-4.267-1.707-4.267-4.267V247.467h-64c-6.827,0-12.8,5.973-12.8,12.8c0,6.827,5.973,12.8,12.8,12.8
	c2.56,0,4.267,1.707,4.267,4.267s-1.707,4.267-4.267,4.267c-11.947,0-21.333-9.387-21.333-21.333
	c0-11.947,9.387-21.333,21.333-21.333h68.267c2.56,0,4.267,1.707,4.267,4.267v64h247.467v-64c0-2.56,1.707-4.267,4.267-4.267H448
	c11.947,0,21.333,9.387,21.333,21.333c0,11.947-9.387,21.333-21.333,21.333c-2.56,0-4.267-1.707-4.267-4.267
	s1.707-4.267,4.267-4.267c6.827,0,12.8-5.973,12.8-12.8c0-6.827-5.973-12.8-12.8-12.8h-64V448
	C384,450.56,382.293,452.267,379.733,452.267z M128,443.733h247.467v-128H128V443.733z M89.6,452.267
	c-2.56,0-4.267-1.707-4.267-4.267V277.333c0-2.56,1.707-4.267,4.267-4.267c2.56,0,4.267,1.707,4.267,4.267V448
	C93.867,450.56,92.16,452.267,89.6,452.267z M345.6,281.6H157.867c-2.56,0-4.267-1.707-4.267-4.267V89.6
	c0-2.56,1.707-4.267,4.267-4.267c17.067,0,29.867-12.8,29.867-29.867c0-1.707,0.853-3.413,2.56-4.267
	c0.853,0,26.453-8.533,61.44-8.533c34.133,0,59.733,8.533,61.44,8.533c1.707,0.853,2.56,2.56,2.56,4.267
	c0,17.92,11.947,29.867,29.867,29.867c2.56,0,4.267,1.707,4.267,4.267v187.733C349.867,279.893,348.16,281.6,345.6,281.6z
	 M162.133,273.067h179.2v-179.2c-19.627-1.707-32.427-15.36-34.133-34.987c-7.68-1.707-29.013-7.68-55.467-7.68
	s-47.787,5.12-55.467,7.68c-1.707,18.773-15.36,33.28-34.133,34.987V273.067z M379.733,213.333c-2.56,0-4.267-1.707-4.267-4.267
	v-153.6c0-2.56,1.707-4.267,4.267-4.267c2.56,0,4.267,1.707,4.267,4.267v153.6C384,211.627,382.293,213.333,379.733,213.333z
	 M123.733,213.333c-2.56,0-4.267-1.707-4.267-4.267v-153.6c0-2.56,1.707-4.267,4.267-4.267c2.56,0,4.267,1.707,4.267,4.267v153.6
	C128,211.627,126.293,213.333,123.733,213.333z M413.867,68.267c-2.56,0-4.267-1.707-4.267-4.267c0-2.56,1.707-4.267,4.267-4.267
	c6.827,0,12.8-5.973,12.8-12.8S419.84,29.867,404.48,25.6c-0.853,0-53.76-17.067-152.747-17.067C151.04,8.533,99.84,25.6,99.84,25.6
	C82.773,31.573,76.8,40.96,76.8,46.933c0,6.827,5.973,12.8,12.8,12.8c2.56,0,4.267,1.707,4.267,4.267
	c0,2.56-1.707,4.267-4.267,4.267c-11.947,0-21.333-9.387-21.333-21.333c0-12.8,11.093-23.893,28.16-29.867
	C98.133,16.213,149.333,0,251.733,0c99.84,0,152.747,16.213,155.307,17.067c17.067,5.12,28.16,17.067,28.16,29.867
	C435.2,58.88,425.813,68.267,413.867,68.267z"/>
<g>
</g>
<g>
</g>
<g>
</g>
<g>
</g>
<g>
</g>
<g>
</g>
<g>
</g>
<g>
</g>
<g>
</g>
<g>
</g>
<g>
</g>
<g>
</g>
<g>
</g>
<g>
</g>
<g>
</g>
</svg>
